HIERARCHY
ROOT Hips
{
	OFFSET 0.000000 0.000000 0.000000
	CHANNELS 6 Xposition Yposition Zposition Zrotation Yrotation Xrotation 
	JOINT LHipJoint
	{
		OFFSET 0.000000 0.000000 0.000000
		CHANNELS 3 Zrotation Yrotation Xrotation
		JOINT LeftUpLeg
		{
			OFFSET 1.363060 -1.794630 0.839290
			CHANNELS 3 Zrotation Yrotation Xrotation
			JOINT LeftLeg
			{
				OFFSET 2.448110 -6.726130 0.000000
				CHANNELS 3 Zrotation Yrotation Xrotation
				JOINT LeftFoot
				{
					OFFSET 2.562200 -7.039590 0.000000
					CHANNELS 3 Zrotation Yrotation Xrotation
					JOINT LeftToeBase
					{
						OFFSET 0.157640 -0.433110 2.322550
						CHANNELS 3 Zrotation Yrotation Xrotation
						End Site
						{
							OFFSET 0.000000 0.000000 0.000000
						}
					}
				}
			}
		}
	}
	JOINT RHipJoint
	{
		OFFSET 0.000000 0.000000 0.000000
		CHANNELS 3 Zrotation Yrotation Xrotation
		JOINT RightUpLeg
		{
			OFFSET -1.305520 -1.794630 0.839290
			CHANNELS 3 Zrotation Yrotation Xrotation
			JOINT RightLeg
			{
				OFFSET -2.542530 -6.985550 0.000000
				CHANNELS 3 Zrotation Yrotation Xrotation
				JOINT RightFoot
				{
					OFFSET -2.568260 -7.056230 0.000000
					CHANNELS 3 Zrotation Yrotation Xrotation
					JOINT RightToeBase
					{
						OFFSET -0.164730 -0.452590 2.363150
						CHANNELS 3 Zrotation Yrotation Xrotation
						End Site
						{
							OFFSET 0.000000 0.000000 0.000000
						}
					}
				}
			}
		}
	}
	JOINT LowerBack
	{
		OFFSET 0.000000 0.000000 0.000000
		CHANNELS 3 Zrotation Yrotation Xrotation
		JOINT Spine
		{
			OFFSET 0.028270 2.035590 -0.193380
			CHANNELS 3 Zrotation Yrotation Xrotation
			JOINT Spine1
			{
				OFFSET 0.056720 2.048850 -0.042750
				CHANNELS 3 Zrotation Yrotation Xrotation
				JOINT Neck
				{
					OFFSET 0.000000 0.000000 0.000000
					CHANNELS 3 Zrotation Yrotation Xrotation
					JOINT Neck1
					{
						OFFSET -0.054170 1.746240 0.172020
						CHANNELS 3 Zrotation Yrotation Xrotation
						JOINT Head
						{
							OFFSET 0.104070 1.761360 -0.123970
							CHANNELS 3 Zrotation Yrotation Xrotation
							End Site
							{
								OFFSET 0.000000 0.000000 0.000000
							}
						}
					}
				}
				JOINT LeftShoulder
				{
					OFFSET 0.000000 0.000000 0.000000
					CHANNELS 3 Zrotation Yrotation Xrotation
					JOINT LeftArm
					{
						OFFSET 3.362410 1.200890 -0.311210
						CHANNELS 3 Zrotation Yrotation Xrotation
						JOINT LeftForeArm
						{
							OFFSET 4.983000 -0.000000 -0.000000
							CHANNELS 3 Zrotation Yrotation Xrotation
							JOINT LeftHand
							{
								OFFSET 3.483560 -0.000000 -0.000000
								CHANNELS 3 Zrotation Yrotation Xrotation
								JOINT LeftFingerBase
								{
									OFFSET 0.000000 0.000000 0.000000
									CHANNELS 3 Zrotation Yrotation Xrotation
									JOINT LeftHandIndex1
									{
										OFFSET 0.715260 -0.000000 -0.000000
										CHANNELS 3 Zrotation Yrotation Xrotation
										End Site
										{
											OFFSET 0.000000 0.000000 0.000000
										}
									}
								}
								JOINT LThumb
								{
									OFFSET 0.000000 0.000000 0.000000
									CHANNELS 3 Zrotation Yrotation Xrotation
									End Site
									{
										OFFSET 0.000000 0.000000 0.000000
									}
								}
							}
						}
					}
				}
				JOINT RightShoulder
				{
					OFFSET 0.000000 0.000000 0.000000
					CHANNELS 3 Zrotation Yrotation Xrotation
					JOINT RightArm
					{
						OFFSET -3.136600 1.374050 -0.404650
						CHANNELS 3 Zrotation Yrotation Xrotation
						JOINT RightForeArm
						{
							OFFSET -5.241900 -0.000000 -0.000000
							CHANNELS 3 Zrotation Yrotation Xrotation
							JOINT RightHand
							{
								OFFSET -3.444170 -0.000000 -0.000000
								CHANNELS 3 Zrotation Yrotation Xrotation
								JOINT RightFingerBase
								{
									OFFSET 0.000000 0.000000 0.000000
									CHANNELS 3 Zrotation Yrotation Xrotation
									JOINT RightHandIndex1
									{
										OFFSET -0.622530 -0.000000 -0.000000
										CHANNELS 3 Zrotation Yrotation Xrotation
										End Site
										{
											OFFSET 0.000000 0.000000 0.000000
										}
									}
								}
								JOINT RThumb
								{
									OFFSET 0.000000 0.000000 0.000000
									CHANNELS 3 Zrotation Yrotation Xrotation
									End Site
									{
										OFFSET 0.000000 0.000000 0.000000
									}
								}
							}
						}
					}
				}
			}
		}
	}
}
MOTION
Frames: 7
Frame Time: 0.008333
1.842444 22.048007 0.490845 24.849160 -65.442234 7.151406 -8.874458 0.008697 3.481458 -10.661719 -6.375959 -77.306214 1.670993 5.534036 77.667646 2.988509 14.710378 -6.533661 0.894400 -0.000000 -36.810300 14.260485 -0.567324 -1.261868 -10.960154 -5.985316 -31.743697 -6.238786 -6.230012 104.580114 -2.466819 -13.160567 -5.789854 -0.496400 -0.000001 -67.575200 -6.661352 -2.402925 -1.790118 -1.142554 -1.890559 -3.902975 -1.579588 -1.989031 -3.466082 6.228311 -7.036467 1.373809 -0.426503 -0.179567 2.446280 0.000000 0.000000 0.000000 14.543616 -8.625030 -5.020133 -84.510278 -66.420566 18.732302 0.163915 -81.403066 -0.213016 14.032523 -5.076142 -0.735568 -0.014874 0.889425 -0.000000 0.000000 0.000000 0.000000 0.000000 0.000000 0.000000 -2.795265 -4.234068 1.516927 19.653577 29.738817 -23.091768 0.153248 86.381224 -0.143745 -17.790083 15.967864 -2.679504 0.282988 -0.763804 -0.000000 0.000000 0.000000 0.000000 0.000000 0.000000 0.000000 
1.750344 22.150325 0.478319 23.822140 -64.661259 9.296696 -8.708589 -0.202906 3.548930 -11.415482 -7.158414 -83.685810 1.940673 6.130371 80.263041 3.085238 14.552182 -8.419850 0.486300 0.000000 -34.457500 14.373340 -0.262338 -1.602657 -12.702368 -5.580982 -33.709580 -7.675015 -6.871741 111.633923 -2.675912 -14.720716 -9.784108 0.237100 0.000001 -63.390800 -6.186085 -2.576864 -1.510304 -1.040605 -2.107123 -3.782710 -1.523943 -2.196466 -3.157655 6.510967 -7.497171 0.881036 -0.402924 -0.169422 2.293764 0.000000 0.000000 0.000000 15.630048 -8.213350 -5.030421 -81.978612 -68.833786 16.485541 0.121307 -81.801342 -0.207881 13.779735 -4.540285 -0.656030 -0.007392 0.882358 -0.000000 0.000000 0.000000 0.000000 0.000000 0.000000 0.000000 -2.278645 -4.848218 1.896306 18.887720 26.998288 -21.389912 0.158215 84.970564 -0.124549 -17.574525 16.946746 -2.801754 0.294751 -0.738548 -0.000000 0.000000 0.000000 0.000000 0.000000 0.000000 0.000000 
1.653779 22.236922 0.471358 22.873905 -63.988466 11.460120 -8.558247 -0.337886 3.669427 -12.152763 -8.210385 -90.180939 2.194833 6.727957 82.465123 3.174601 14.294494 -10.237381 0.095500 -0.000000 -32.357900 14.426417 0.049709 -1.855130 -14.912060 -4.956599 -35.443549 -9.287122 -7.477710 118.047076 -2.884619 -15.974023 -13.512552 1.090300 0.000000 -59.304500 -5.634744 -2.744488 -1.366695 -0.913068 -2.318770 -3.684077 -1.449306 -2.403880 -2.836295 6.735342 -7.924458 0.387624 -0.377165 -0.159009 2.141179 0.000000 0.000000 0.000000 16.754902 -7.531200 -5.054359 -77.922197 -71.183124 12.756459 0.046594 -82.433392 -0.203746 13.526559 -3.974852 -0.575528 0.002195 0.875271 -0.000000 0.000000 0.000000 0.000000 0.000000 0.000000 0.000000 -1.813775 -5.512021 2.209273 18.179289 24.473708 -19.507383 0.192575 83.359162 -0.103602 -17.135505 17.957020 -2.886919 0.300694 -0.710731 -0.000000 0.000000 0.000000 0.000000 0.000000 0.000000 0.000000 
1.550887 22.307962 0.470074 21.994763 -63.422422 13.641240 -8.433351 -0.386963 3.826571 -12.822377 -9.534893 -96.719829 2.418570 7.325887 84.293432 3.253952 13.923093 -12.028655 -0.283200 -0.000000 -30.592200 14.403403 0.351414 -1.998839 -17.649141 -4.094679 -36.912025 -11.021906 -8.037999 123.688289 -3.067942 -16.798102 -16.812431 1.941700 -0.000000 -55.641400 -5.024447 -2.906145 -1.345253 -0.760438 -2.523687 -3.617058 -1.350015 -2.609718 -2.552167 6.901334 -8.341963 -0.082059 -0.350776 -0.148859 1.996075 0.000000 0.000000 0.000000 17.885987 -6.591917 -5.170393 -72.078403 -73.186588 7.174937 -0.070462 -83.313880 -0.199634 13.252419 -3.426667 -0.498961 0.015197 0.869134 -0.000000 0.000000 0.000000 0.000000 0.000000 0.000000 0.000000 -1.421327 -6.226996 2.472522 17.558060 22.145088 -17.505616 0.253701 81.699763 -0.082142 -16.560693 18.995156 -2.944188 0.303483 -0.682138 -0.000000 0.000000 0.000000 0.000000 0.000000 0.000000 0.000000 
1.440167 22.364031 0.475186 21.121104 -62.962662 15.872889 -8.350201 -0.339831 4.005643 -13.356649 -11.098500 -103.237059 2.600787 7.926931 85.775698 3.317324 13.414516 -13.795159 -0.643100 -0.000001 -29.297300 14.286926 0.615245 -2.025624 -20.890177 -3.003086 -38.100252 -12.794315 -8.544892 128.447883 -3.192408 -17.085087 -19.579814 2.665300 -0.000000 -52.633300 -4.335884 -3.071999 -1.433288 -0.576688 -2.733326 -3.593064 -1.223237 -2.824412 -2.356010 6.991230 -8.760349 -0.481582 -0.328908 -0.140152 1.872357 0.000000 0.000000 0.000000 18.992652 -5.462148 -5.489796 -64.291414 -74.444082 -0.470228 -0.243828 -84.487949 -0.195177 12.950260 -2.942412 -0.431521 0.031617 0.863176 -0.000000 0.000000 0.000000 0.000000 0.000000 0.000000 0.000000 -1.140621 -6.934580 2.717435 17.061862 19.964364 -15.447329 0.335904 80.130092 -0.061172 -15.948299 20.057848 -2.988348 0.305936 -0.654999 0.000000 0.000000 0.000000 0.000000 0.000000 0.000000 0.000000 
1.320609 22.405876 0.486527 20.181628 -62.607077 18.163340 -8.326970 -0.185406 4.191192 -13.712005 -12.833324 -109.648721 2.733149 8.534490 86.939804 3.355625 12.746568 -15.494778 -0.964800 -0.000000 -28.667300 14.070163 0.808824 -1.946477 -24.519472 -1.730916 -39.010753 -14.497545 -8.996755 132.265588 -3.228255 -16.789470 -21.791149 3.169699 -0.000000 -50.418400 -3.541199 -3.256831 -1.612996 -0.359939 -2.966303 -3.606413 -1.082981 -3.064438 -2.239961 6.988856 -9.195534 -0.777269 -0.320199 -0.134071 1.779517 0.000000 0.000000 0.000000 20.063977 -4.262106 -6.057951 -54.713943 -74.578182 -9.939486 -0.485548 -86.046870 -0.189572 12.613354 -2.573098 -0.378183 0.049485 0.854696 -0.000000 0.000000 0.000000 0.000000 0.000000 0.000000 0.000000 -0.995212 -7.549565 2.968762 16.721747 17.888425 -13.418467 0.430457 78.757088 -0.041616 -15.396815 21.146384 -3.037691 0.309779 -0.631626 0.000000 0.000000 0.000000 0.000000 0.000000 0.000000 0.000000 
1.191619 22.435238 0.504049 19.103024 -62.334245 20.506576 -8.381283 0.079382 4.372171 -13.872893 -14.669906 -115.862659 2.811452 9.149499 87.813290 3.359063 11.910664 -17.052391 -1.221900 0.000000 -28.894199 13.759851 0.905054 -1.794126 -28.309314 -0.389482 -39.670559 -16.016323 -9.395669 135.140116 -3.164552 -15.970921 -23.503854 3.429899 0.000000 -48.970700 -2.604930 -3.458120 -1.866956 -0.113303 -3.226286 -3.625921 -0.962494 -3.331987 -2.099355 6.896637 -9.658298 -1.007667 -0.325329 -0.129978 1.705284 0.000000 0.000000 0.000000 21.044392 -3.079570 -6.706862 -43.999557 -73.513365 -20.385623 -0.785919 -88.050779 -0.182492 12.249575 -2.353040 -0.342009 0.064912 0.841889 -0.000000 0.000000 0.000000 0.000000 0.000000 0.000000 0.000000 -0.984873 -8.037530 3.204559 16.562011 15.864590 -11.534497 0.522181 77.662943 -0.024505 -14.976598 22.258129 -3.108016 0.314115 -0.613111 -0.000000 0.000000 0.000000 0.000000 0.000000 0.000000 0.000000 
